<?xml version="1.0" encoding="UTF-8"?>
<svg width="891px" height="361px" viewBox="0 0 891 361" version="1.1" xmlns="http://www.w3.org/2000/svg" xmlns:xlink="http://www.w3.org/1999/xlink">
    <!-- Generator: Sketch 51.1 (57501) - http://www.bohemiancoding.com/sketch -->
    <title>Logo+Text</title>
    <desc>Created with Sketch.</desc>
    <defs></defs>
    <g id="social" stroke="none" stroke-width="1" fill="none" fill-rule="evenodd">
        <g id="bagisto-900x600" transform="translate(-5.000000, -104.000000)" fill-rule="nonzero">
            <g id="Logo+Text" transform="translate(5.000000, 104.000000)">
                <g id="Logo">
                    <rect id="Rectangle" fill="#2149F3" x="0" y="96.2666667" width="268" height="264.733333"></rect>
                    <rect id="Rectangle" fill="#000311" x="0" y="324.9" width="268" height="36.1"></rect>
                    <path d="M219.272727,91.5825503 L219.272727,153.768233 C219.272727,161.885954 212.926577,168.466667 205.098204,168.466667 C197.269832,168.466667 190.923681,161.885954 190.923681,153.768233 L190.923681,91.5825503 C190.923681,57.2383463 164.074585,29.396868 130.954545,29.396868 C97.8345061,29.396868 70.9854097,57.2383463 70.9854097,91.5825503 L70.9854097,153.768233 C70.9854097,161.885954 64.6392593,168.466667 56.8108866,168.466667 C48.9825137,168.466667 42.6363636,161.885954 42.6363636,153.768233 L42.6363636,91.5825503 C42.6363636,41.0029044 82.1777603,0 130.954545,0 C179.731331,0 219.272727,41.0029044 219.272727,91.5825503 Z" id="Combined-Shape" fill="#000311"></path>
                </g>
                <path d="M439.089155,182.749744 C444.638838,186.069106 448.933746,190.759438 451.974007,196.82088 C455.014268,202.882323 456.534376,209.857688 456.534376,217.747185 C456.534376,225.540469 455.038397,232.395569 452.046394,238.312692 C449.054391,244.229815 444.831869,248.823935 439.378702,252.095189 C433.925536,255.366444 427.579689,257.002047 420.340972,257.002047 C414.936063,257.002047 410.134453,255.967769 405.935997,253.899181 C401.737541,251.830594 398.190623,248.823971 395.295137,244.879222 L395.295137,256.136131 L373,256.136131 L373,149.051177 L395.295137,149.051177 L395.295137,189.893552 C398.094107,185.948803 401.592768,182.94218 405.791224,180.873593 C409.98968,178.805005 414.694775,177.770727 419.906651,177.770727 C427.145368,177.770727 433.539472,179.430382 439.089155,182.749744 Z M428.593068,232.539918 C432.164169,228.547063 433.949692,223.375672 433.949692,217.025589 C433.949692,210.771719 432.164169,205.648433 428.593068,201.655578 C425.021968,197.662723 420.389258,195.666325 414.694801,195.666325 C409.000344,195.666325 404.343506,197.662723 400.724147,201.655578 C397.104789,205.648433 395.295137,210.771719 395.295137,217.025589 C395.295137,223.471885 397.104789,228.667329 400.724147,232.612078 C404.343506,236.556826 409.000344,238.529171 414.694801,238.529171 C420.389258,238.529171 425.021968,236.532773 428.593068,232.539918 Z M514.154276,256.136131 L514.154276,247.044012 C511.548337,250.315267 508.17032,252.816778 504.020123,254.548618 C499.869925,256.280459 495.092444,257.146366 489.687535,257.146366 C481.483656,257.146366 474.968908,254.909439 470.143097,250.435517 C465.317285,245.961595 462.904416,240.11672 462.904416,232.900716 C462.904416,225.5885 465.486186,219.887943 470.649804,215.798874 C475.813423,211.709806 483.124417,209.617196 492.583007,209.520983 L514.009502,209.520983 L514.009502,208.077789 C514.009502,203.940614 512.634167,200.741567 509.883454,198.480553 C507.132741,196.219538 503.10325,195.089048 497.794857,195.089048 C490.55614,195.089048 482.834958,197.350028 474.631079,201.872057 L467.681945,186.574207 C473.858984,183.495378 479.64987,181.234398 485.054779,179.791198 C490.459688,178.347997 496.395346,177.626407 502.861934,177.626407 C513.285686,177.626407 521.368799,180.079812 527.111514,184.986694 C532.85423,189.893576 535.773802,196.724623 535.870318,205.480041 L536.015092,256.136131 L514.154276,256.136131 Z M507.92901,237.951894 C511.307078,235.738986 513.333888,232.94884 514.009502,229.581372 L514.009502,222.654043 L496.491895,222.654043 C492.148665,222.654043 488.939548,223.351579 486.864449,224.746673 C484.789351,226.141768 483.751817,228.378695 483.751817,231.457523 C483.751817,234.440138 484.837608,236.821383 487.009223,238.601331 C489.180838,240.381278 492.148668,241.271238 495.9128,241.271238 C500.545579,241.271238 504.550942,240.164801 507.92901,237.951894 Z M625.919505,178.492323 L625.919505,248.920164 C625.919505,256.232381 624.18224,262.606421 620.707655,268.042477 C617.233076,273.478533 612.359079,277.663752 606.085522,280.59826 C599.811968,283.532768 592.573359,285 584.36948,285 C577.999409,285 571.943107,284.085987 566.200391,282.257932 C560.457676,280.429878 555.221749,277.928368 550.492454,274.753327 L558.74455,259.166837 C566.079784,264.36236 574.138767,266.960082 582.921744,266.960082 C589.291815,266.960082 594.358841,265.396638 598.122974,262.269703 C601.887106,259.142768 603.769144,254.933496 603.769144,249.64176 L603.769144,240.83828 C601.163206,244.494389 597.881704,247.284535 593.924539,249.208802 C589.967373,251.13307 585.431179,252.095189 580.315819,252.095189 C573.656199,252.095189 567.744669,250.531745 562.581051,247.404811 C557.417433,244.277876 553.41207,239.87618 550.564841,234.199591 C547.717612,228.523001 546.294019,221.98059 546.294019,214.57216 C546.294019,207.259943 547.717612,200.837796 550.564841,195.305527 C553.41207,189.773258 557.417433,185.467774 562.581051,182.388946 C567.744669,179.310117 573.656199,177.770727 580.315819,177.770727 C585.334663,177.770727 589.8226,178.756899 593.779765,180.729273 C597.73693,182.701647 601.06669,185.46774 603.769144,189.027636 L603.769144,178.492323 L625.919505,178.492323 Z M598.702068,229.653531 C602.080136,225.949316 603.769144,221.114667 603.769144,215.149437 C603.769144,209.184207 602.080136,204.325505 598.702068,200.573183 C595.324,196.820862 590.932578,194.944729 585.527669,194.944729 C580.12276,194.944729 575.731338,196.820862 572.35327,200.573183 C568.975202,204.325505 567.237936,209.184207 567.14142,215.149437 C567.237936,221.114667 568.951073,225.949316 572.280883,229.653531 C575.610693,233.357746 580.026244,235.209826 585.527669,235.209826 C590.932578,235.209826 595.324,233.357746 598.702068,229.653531 Z M644.016213,178.492323 L666.31135,178.492323 L666.31135,256.136131 L644.016213,256.136131 L644.016213,178.492323 Z M663.777811,147.463664 C666.045937,149.772785 667.179991,152.755356 667.179991,156.411464 C667.179991,160.067572 666.045937,163.050142 663.777811,165.359263 C661.509679,167.668384 658.590108,168.822927 655.019008,168.822927 C651.544423,168.822927 648.673104,167.644331 646.404978,165.287103 C644.136846,162.929875 643.002798,159.971359 643.002798,156.411464 C643.002798,152.755356 644.136846,149.772785 646.404978,147.463664 C648.673104,145.154543 651.544423,144 655.019008,144 C658.590108,144 661.509679,145.154543 663.777811,147.463664 Z M721.904418,195.738485 C717.754217,194.439604 714.038403,193.790174 710.756849,193.790174 C708.054397,193.790174 705.88281,194.271234 704.242037,195.233367 C702.601257,196.195501 701.780885,197.63868 701.780885,199.562948 C701.780885,201.679642 702.890804,203.315245 705.110679,204.469806 C707.330553,205.624366 710.949857,206.923227 715.9687,208.366428 C721.470121,210.002056 726.006319,211.613605 729.577419,213.201126 C733.14852,214.788647 736.236994,217.145839 738.842931,220.272774 C741.448868,223.399709 742.751818,227.512769 742.751818,232.612078 C742.751818,240.309148 739.783989,246.298341 733.848241,250.579836 C727.912493,254.861332 720.31195,257.002047 711.046397,257.002047 C704.676328,257.002047 698.547638,256.063981 692.660148,254.18782 C686.772657,252.311659 681.657371,249.641778 677.314144,246.178096 L684.552825,231.168884 C688.509989,234.247713 692.925542,236.628958 697.799611,238.312692 C702.67368,239.996426 707.282259,240.83828 711.625491,240.83828 C714.617491,240.83828 717.006232,240.333168 718.791785,239.322927 C720.577332,238.312687 721.470097,236.797349 721.470097,234.776868 C721.470097,232.563961 720.336049,230.832145 718.067917,229.581372 C715.799785,228.330598 712.156352,226.983631 707.137509,225.54043 C701.829113,224.001016 697.413566,222.461625 693.890723,220.922211 C690.367881,219.382797 687.351794,217.049657 684.842372,213.922723 C682.332951,210.795788 681.078258,206.730834 681.078258,201.727738 C681.078258,194.030668 683.973701,188.065528 689.764675,183.832139 C695.55565,179.598751 702.890768,177.482088 711.770265,177.482088 C717.078655,177.482088 722.386966,178.227731 727.695362,179.719038 C733.003752,181.210345 737.829491,183.351061 742.172724,186.141249 L734.499722,201.29478 C730.253006,198.889445 726.054613,197.037366 721.904418,195.738485 Z M803.556737,251.806551 C800.661252,253.538391 797.452134,254.861305 793.929291,255.775333 C790.406449,256.68936 786.859531,257.146366 783.288431,257.146366 C776.049714,257.146366 770.162314,255.07781 765.62605,250.940635 C761.089785,246.80346 758.82169,240.886425 758.82169,233.189355 L758.82169,197.253838 L747.963669,197.253838 L747.963669,181.955988 L758.82169,181.955988 L758.82169,160.596725 L780.972053,160.596725 L780.972053,181.955988 L802.109,181.955988 L802.109,197.398158 L780.972053,197.398158 L780.972053,229.437052 C780.972053,235.402282 783.336664,238.384852 788.06596,238.384852 C791.347513,238.384852 794.966817,237.422732 798.923981,235.498465 L803.556737,251.806551 Z M871.093628,182.677584 C877.415439,185.948839 882.313565,190.567012 885.78815,196.532242 C889.262735,202.497471 891,209.42473 891,217.314227 C891,225.107511 889.262735,232.010717 885.78815,238.024053 C882.313565,244.037389 877.415439,248.703668 871.093628,252.02303 C864.771817,255.342391 857.509079,257.002047 849.305199,257.002047 C841.004803,257.002047 833.693808,255.342391 827.371996,252.02303 C821.050185,248.703668 816.152059,244.037389 812.677474,238.024053 C809.20289,232.010717 807.465624,225.107511 807.465624,217.314227 C807.465624,209.42473 809.20289,202.497471 812.677474,196.532242 C816.152059,190.567012 821.050185,185.948839 827.371996,182.677584 C833.693808,179.40633 841.004803,177.770727 849.305199,177.770727 C857.509079,177.770727 864.771817,179.40633 871.093628,182.677584 Z M835.189771,202.160696 C831.570413,206.105445 829.760761,211.252783 829.760761,217.602866 C829.760761,223.952949 831.570413,229.100287 835.189771,233.045036 C838.80913,236.989784 843.514224,238.962129 849.305199,238.962129 C854.999658,238.962129 859.656494,236.989784 863.275853,233.045036 C866.895211,229.100287 868.704863,223.952949 868.704863,217.602866 C868.704863,211.252783 866.895211,206.105445 863.275853,202.160696 C859.656494,198.215947 854.999658,196.243603 849.305199,196.243603 C843.514224,196.243603 838.80913,198.215947 835.189771,202.160696 Z" id="bagisto" fill="#000311"></path>
            </g>
        </g>
    </g>
</svg>